<?xml version="1.0" encoding="UTF-8" standalone="no"?>
<!-- Created with Inkscape (http://www.inkscape.org/) -->

<svg
   xmlns:dc="http://purl.org/dc/elements/1.1/"
   xmlns:cc="http://creativecommons.org/ns#"
   xmlns:rdf="http://www.w3.org/1999/02/22-rdf-syntax-ns#"
   xmlns:svg="http://www.w3.org/2000/svg"
   xmlns="http://www.w3.org/2000/svg"
   xmlns:xlink="http://www.w3.org/1999/xlink"
   xmlns:sodipodi="http://sodipodi.sourceforge.net/DTD/sodipodi-0.dtd"
   xmlns:inkscape="http://www.inkscape.org/namespaces/inkscape"
   width="360.45999"
   height="369.45999"
   id="svg21340"
   version="1.1"
   inkscape:version="0.48.4 r9939"
   sodipodi:docname="logo-bleu.svg"
   inkscape:export-filename="/home/oriane/OMV/ico talaka/logobleugo.png"
   inkscape:export-xdpi="90"
   inkscape:export-ydpi="90">
  <defs
     id="defs21342">
    <path
       style="fill:none;stroke:none"
       d="m 500.16205,772.11406 c 0,0 8.27197,48.21133 89.80996,48.21133 81.53799,0 84.49226,-54.71603 84.49226,-54.71603"
       id="path21295"
       inkscape:connector-curvature="0" />
    <path
       sodipodi:type="arc"
       style="opacity:0;fill:#16502d;fill-opacity:1;fill-rule:evenodd;stroke:none"
       id="path21127"
       sodipodi:cx="601.58514"
       sodipodi:cy="487.76416"
       sodipodi:rx="63.09573"
       sodipodi:ry="51.129299"
       d="m 664.68087,487.76416 a 63.09573,51.129299 0 1 1 -126.19146,0 63.09573,51.129299 0 1 1 126.19146,0 z"
       transform="matrix(0.99729477,0.07350605,-0.07350605,0.99729477,41.068669,-38.124402)" />
    <path
       sodipodi:type="arc"
       style="opacity:0;fill:#16502d;fill-opacity:1;fill-rule:evenodd;stroke:none"
       id="path21127-2"
       sodipodi:cx="601.58514"
       sodipodi:cy="487.76416"
       sodipodi:rx="63.09573"
       sodipodi:ry="51.129299"
       d="m 664.68087,487.76416 a 63.09573,51.129299 0 1 1 -126.19146,0 63.09573,51.129299 0 1 1 126.19146,0 z"
       transform="matrix(0.99729477,0.07350605,-0.07350605,0.99729477,41.068669,-38.124402)" />
    <path
       inkscape:connector-curvature="0"
       id="path21295-3"
       d="m 500.16205,772.11406 c 0,0 8.27197,48.21133 89.80996,48.21133 81.53799,0 84.49226,-54.71603 84.49226,-54.71603"
       style="fill:none;stroke:none" />
    <path
       sodipodi:type="arc"
       style="opacity:0;fill:#16502d;fill-opacity:1;fill-rule:evenodd;stroke:none"
       id="path21127-7"
       sodipodi:cx="601.58514"
       sodipodi:cy="487.76416"
       sodipodi:rx="63.09573"
       sodipodi:ry="51.129299"
       d="m 664.68087,487.76416 a 63.09573,51.129299 0 1 1 -126.19146,0 63.09573,51.129299 0 1 1 126.19146,0 z"
       transform="matrix(0.99729477,0.07350605,-0.07350605,0.99729477,41.068669,-38.124402)" />
    <path
       style="fill:none;stroke:none"
       d="m 500.16205,772.11406 c 0,0 8.27197,48.21133 89.80996,48.21133 81.53799,0 84.49226,-54.71603 84.49226,-54.71603"
       id="path21295-35"
       inkscape:connector-curvature="0" />
    <path
       sodipodi:type="arc"
       style="opacity:0;fill:#16502d;fill-opacity:1;fill-rule:evenodd;stroke:none"
       id="path21127-4"
       sodipodi:cx="601.58514"
       sodipodi:cy="487.76416"
       sodipodi:rx="63.09573"
       sodipodi:ry="51.129299"
       d="m 664.68087,487.76416 a 63.09573,51.129299 0 1 1 -126.19146,0 63.09573,51.129299 0 1 1 126.19146,0 z"
       transform="matrix(0.99729477,0.07350605,-0.07350605,0.99729477,41.068669,-38.124402)" />
    <path
       style="fill:none;stroke:none"
       d="m 500.16205,772.11406 c 0,0 8.27197,48.21133 89.80996,48.21133 81.53799,0 84.49226,-54.71603 84.49226,-54.71603"
       id="path21295-32"
       inkscape:connector-curvature="0" />
    <path
       transform="translate(0,752.60218)"
       inkscape:connector-curvature="0"
       id="path22126"
       d="m 596.6124,101.58231 c 0,0 92.77127,89.87803 189.79158,-7.142286"
       style="fill:none;stroke:none" />
  </defs>
  <sodipodi:namedview
     id="base"
     pagecolor="#ffffff"
     bordercolor="#666666"
     borderopacity="1.0"
     inkscape:pageopacity="0.0"
     inkscape:pageshadow="2"
     inkscape:zoom="0.98994949"
     inkscape:cx="218.29938"
     inkscape:cy="125.67396"
     inkscape:document-units="px"
     inkscape:current-layer="layer1"
     showgrid="false"
     fit-margin-top="0"
     fit-margin-left="0"
     fit-margin-right="0"
     fit-margin-bottom="0"
     inkscape:window-width="472"
     inkscape:window-height="383"
     inkscape:window-x="67"
     inkscape:window-y="24"
     inkscape:window-maximized="0" />
  <metadata
     id="metadata21345">
    <rdf:RDF>
      <cc:Work
         rdf:about="">
        <dc:format>image/svg+xml</dc:format>
        <dc:type
           rdf:resource="http://purl.org/dc/dcmitype/StillImage" />
        <dc:title></dc:title>
      </cc:Work>
    </rdf:RDF>
  </metadata>
  <g
     inkscape:label="Layer 1"
     inkscape:groupmode="layer"
     id="layer1"
     transform="translate(-311.39817,-300.36351)">
    <g
       id="g22121"
       transform="matrix(0.94030921,0,0,0.94030921,-160.57529,-229.18396)">
      <path
         transform="matrix(0.89795918,0,0,0.89795918,299.35841,198.16889)"
         d="m 624.61586,645.43878 c 0,104.08452 -84.37717,188.46169 -188.46169,188.46169 -104.08451,0 -188.46168,-84.37717 -188.46168,-188.46169 0,-104.08451 84.37717,-188.46168 188.46168,-188.46168 104.08452,0 188.46169,84.37717 188.46169,188.46168 z"
         sodipodi:ry="188.46169"
         sodipodi:rx="188.46169"
         sodipodi:cy="645.43878"
         sodipodi:cx="436.15417"
         id="path21717"
         style="fill:#f6fff7;fill-opacity:1;fill-rule:evenodd;stroke:none"
         sodipodi:type="arc" />
      <path
         transform="matrix(1.5235294,0,0,1.5235294,154.01501,-176.69281)"
         d="m 444.9337,626.466 c 0,51.0686 -41.39928,92.46788 -92.46788,92.46788 -51.0686,0 -92.46788,-41.39928 -92.46788,-92.46788 0,-51.0686 41.39928,-92.46788 92.46788,-92.46788 51.0686,0 92.46788,41.39928 92.46788,92.46788 z"
         sodipodi:ry="92.46788"
         sodipodi:rx="92.46788"
         sodipodi:cy="626.466"
         sodipodi:cx="352.46582"
         id="path12127-7"
         style="opacity:0.47967086;fill:#aaeeff;fill-opacity:1;fill-rule:evenodd;stroke:none"
         sodipodi:type="arc" />
      <path
         transform="matrix(1.2529412,0,0,1.2529412,247.38814,-0.6512984)"
         d="m 444.9337,626.466 c 0,51.0686 -41.39928,92.46788 -92.46788,92.46788 -51.0686,0 -92.46788,-41.39928 -92.46788,-92.46788 0,-51.0686 41.39928,-92.46788 92.46788,-92.46788 51.0686,0 92.46788,41.39928 92.46788,92.46788 z"
         sodipodi:ry="92.46788"
         sodipodi:rx="92.46788"
         sodipodi:cy="626.466"
         sodipodi:cx="352.46582"
         id="path12127"
         style="opacity:0.50144043;fill:#80e5ff;fill-opacity:1;fill-rule:evenodd;stroke:none"
         sodipodi:type="arc" />
    </g>
    <path
       style="opacity:0.77366255;fill:#2ad4ff;stroke:none"
       d="m 429.49785,462.43091 -60.57607,14.6626 0.55142,12.25051 -26.5852,9.91423 38.7482,40.65195 38.62677,0.4073 39.51293,23.33359 106.21898,-49.72966 z"
       id="path5642"
       inkscape:connector-curvature="0"
       sodipodi:nodetypes="ccccccccc" />
    <path
       style="fill:#00aad4;fill-opacity:1;stroke:none"
       d="m 505.4605,496.51319 58.68043,-11.02208 0.36004,26.00623 -58.68409,19.79908 z"
       id="path4816"
       inkscape:connector-curvature="0"
       sodipodi:nodetypes="ccccc" />
    <path
       style="fill:#2ad4ff;stroke:none"
       d="m 564.5915,485.40427 -36.69734,-17.70933 -60.35241,12.19976 38.37376,16.8179 z"
       id="path5586"
       inkscape:connector-curvature="0"
       sodipodi:nodetypes="ccccc" />
    <path
       style="fill:#d5f6ff;stroke:#2ad4ff;stroke-width:1.6925565;stroke-linecap:butt;stroke-linejoin:miter;stroke-miterlimit:4;stroke-opacity:1;stroke-dasharray:none"
       d="m 526.67108,467.2929 -16.46451,-27.54538 -52.14037,8.40883 11.83631,31.26114 z"
       id="path5588"
       inkscape:connector-curvature="0"
       sodipodi:nodetypes="ccccc" />
    <path
       style="fill:#00aad4;stroke:none"
       d="m 413.73705,433.961 -3.59087,16.9979 -8.43691,-1.62746 2.5808,18.70027 101.99499,63.14029 -0.27482,-34.47766 -36.29417,-16.92608 -11.94986,-32.42594 z"
       id="path5592"
       inkscape:connector-curvature="0"
       sodipodi:nodetypes="ccccccccc" />
    <path
       style="fill:#2ad4ff;stroke:none"
       d="m 510.49164,438.83029 -46.0306,-10.15431 -50.99944,5.32457 43.69203,14.04702 z"
       id="path5590"
       inkscape:connector-curvature="0"
       sodipodi:nodetypes="ccccc" />
    <path
       style="fill:#55ddff;stroke:none"
       d="m 401.72857,449.29784 9.4556,-2.423 -0.63932,4.1976 z"
       id="path5596"
       inkscape:connector-curvature="0"
       sodipodi:nodetypes="cccc" />
    <path
       style="fill:#d7f4e3;fill-opacity:1;stroke:none"
       d="m 416.39563,437.51873 -2.81304,14.32092 49.36776,25.35101 -9.72952,-27.78045 z"
       id="path5598"
       inkscape:connector-curvature="0"
       sodipodi:nodetypes="ccccc" />
    <path
       style="fill:#ffd42a;stroke:none"
       d="m 507.64913,497.92887 -0.2016,7.45612 10.36314,-2.62679 0.20439,-7.55969 z"
       id="path5602"
       inkscape:connector-curvature="0"
       sodipodi:nodetypes="ccccc" />
    <path
       style="fill:#ffd42a;stroke:none"
       d="m 556.91456,489.95987 0.0441,7.13445 6.72751,-3.29506 -0.0448,-7.23353 z"
       id="path5602-3"
       inkscape:connector-curvature="0"
       sodipodi:nodetypes="ccccc" />
    <path
       style="opacity:0.85596708;fill:#006680;stroke:none"
       d="m 411.79248,466.67201 10.74068,8.69485 -2.5573,10.74068 -10.74069,-5.62606 z"
       id="path5622"
       inkscape:connector-curvature="0" />
    <path
       style="opacity:0.85596708;fill:#006680;stroke:none"
       d="m 455.77814,492.75655 10.74068,8.69484 -2.5573,10.74068 -10.74069,-5.62607 z"
       id="path5622-8"
       inkscape:connector-curvature="0" />
    <g
       id="g22146"
       transform="matrix(0.94030921,0,0,0.94030921,-160.57529,-229.18396)">
      <path
         sodipodi:nodetypes="ccccc"
         inkscape:connector-curvature="0"
         id="path5602-6-8"
         d="m 709.25032,783.56059 1.33321,2.11147 38.89612,9.65598 -1.35168,-2.14076 z"
         style="opacity:0.9;fill:#ffd42a;stroke:none" />
      <path
         sodipodi:nodetypes="ccccc"
         inkscape:connector-curvature="0"
         id="path5602-6-1-4"
         d="m 747.67491,794.56791 2.00893,0.58306 21.56115,-26.07908 -2.03686,-0.59123 z"
         style="opacity:0.9;fill:#ffd42a;stroke:none" />
    </g>
    <path
       style="fill:none;stroke:none"
       d="m 387.00503,530.48728 c 0,0 7.77821,45.33355 84.44914,45.33355 76.67092,0 79.44885,-51.44999 79.44885,-51.44999"
       id="path21295-6"
       inkscape:connector-curvature="0" />
    <path
       style="fill:#ffd4af;fill-opacity:0.70776253;stroke:none"
       d="m 510.57893,499.95188 -0.15512,5.73666 7.97331,-2.02103 0.15726,-5.81634 z"
       id="path5602-0"
       inkscape:connector-curvature="0"
       sodipodi:nodetypes="ccccc" />
    <path
       style="fill:#ffd4a2;fill-opacity:0.8584475;stroke:none"
       d="m 555.71646,492.50223 0.041,5.73425 6.25398,-2.64838 -0.0416,-5.81389 z"
       id="path5602-3-2"
       inkscape:connector-curvature="0"
       sodipodi:nodetypes="ccccc" />
    <path
       style="fill:none;stroke:none"
       d="m 400.42484,574.01358 c 0,0 87.23368,84.51314 178.46278,-6.71596"
       id="path22241"
       inkscape:connector-curvature="0" />
    <text
       xml:space="preserve"
       style="font-size:40px;font-style:normal;font-weight:normal;line-height:125%;letter-spacing:0px;word-spacing:0px;fill:#0088aa;fill-opacity:1;stroke:none;font-family:Sans"
       id="text22136"
       sodipodi:linespacing="125%"
       transform="matrix(0.91093295,-0.23320074,0.23320074,0.91093295,-286.63837,-84.925205)"><textPath
         xlink:href="#path22126"
         id="textPath22142"><tspan
   id="tspan22138"
   style="fill:#0088aa"><tspan
     id="tspan22140"
     style="fill:#0088aa"
     y="989.97217"
     x="541.75">TUT-TUT</tspan></tspan></textPath></text>
    <path
       style="opacity:0.9;fill:#ffd42a;stroke:none"
       d="m 510.65413,506.04421 1.1098,1.67718 32.37832,7.66998 -1.12518,-1.70046 z"
       id="path5602-6-8-7"
       inkscape:connector-curvature="0"
       sodipodi:nodetypes="ccccc" />
    <path
       style="opacity:0.9;fill:#ffd42a;stroke:none"
       d="m 541.54964,514.5475 1.76867,0.3571 18.09677,-18.37533 -1.79327,-0.36213 z"
       id="path5602-6-1-4-0"
       inkscape:connector-curvature="0"
       sodipodi:nodetypes="ccccc" />
  </g>
</svg>
