<?xml version="1.0" encoding="UTF-8" standalone="no"?>
<!-- Created with Inkscape (http://www.inkscape.org/) -->

<svg
   xmlns:dc="http://purl.org/dc/elements/1.1/"
   xmlns:cc="http://creativecommons.org/ns#"
   xmlns:rdf="http://www.w3.org/1999/02/22-rdf-syntax-ns#"
   xmlns:svg="http://www.w3.org/2000/svg"
   xmlns="http://www.w3.org/2000/svg"
   xmlns:xlink="http://www.w3.org/1999/xlink"
   xmlns:sodipodi="http://sodipodi.sourceforge.net/DTD/sodipodi-0.dtd"
   xmlns:inkscape="http://www.inkscape.org/namespaces/inkscape"
   width="440.84"
   height="364.54999"
   id="svg22799"
   version="1.1"
   inkscape:version="0.48.4 r9939"
   sodipodi:docname="logo-blanc-carre.svg"
   inkscape:export-filename="/home/oriane/OMV/ico talaka/logo-bleu/carre-blanc.png"
   inkscape:export-xdpi="90"
   inkscape:export-ydpi="90">
  <defs
     id="defs22801">
    <path
       style="fill:none;stroke:none"
       d="m 671.67456,817.19734 c 0,0 92.77127,89.87803 189.79158,-7.14229"
       id="path22126"
       inkscape:connector-curvature="0" />
  </defs>
  <sodipodi:namedview
     id="base"
     pagecolor="#ffffff"
     bordercolor="#666666"
     borderopacity="1.0"
     inkscape:pageopacity="0.0"
     inkscape:pageshadow="2"
     inkscape:zoom="0.53588673"
     inkscape:cx="157.84239"
     inkscape:cy="216.36359"
     inkscape:document-units="px"
     inkscape:current-layer="layer1"
     showgrid="false"
     fit-margin-top="0"
     fit-margin-left="0"
     fit-margin-right="0"
     fit-margin-bottom="0"
     inkscape:window-width="475"
     inkscape:window-height="383"
     inkscape:window-x="67"
     inkscape:window-y="24"
     inkscape:window-maximized="0"
     showguides="true"
     inkscape:guide-bbox="true" />
  <metadata
     id="metadata22804">
    <rdf:RDF>
      <cc:Work
         rdf:about="">
        <dc:format>image/svg+xml</dc:format>
        <dc:type
           rdf:resource="http://purl.org/dc/dcmitype/StillImage" />
        <dc:title></dc:title>
      </cc:Work>
    </rdf:RDF>
  </metadata>
  <g
     inkscape:label="Layer 1"
     inkscape:groupmode="layer"
     id="layer1"
     transform="translate(-246.31095,-272.1812)">
    <rect
       style="fill:#ffffff;fill-opacity:1;fill-rule:evenodd;stroke:none"
       id="rect23044"
       width="418.20316"
       height="305.06607"
       x="253.75981"
       y="306.17776" />
    <path
       style="opacity:0.77366255;fill:#2ad4ff;stroke:none"
       d="m 406.32812,381.71321 -104.92399,25.39715 0.95513,21.21914 -46.04831,17.17245 67.11586,70.41337 66.90554,0.70548 68.44046,40.41618 183.98218,-86.13689 z"
       id="path5642"
       inkscape:connector-curvature="0"
       sodipodi:nodetypes="ccccccccc" />
    <path
       style="fill:#00aad4;fill-opacity:1;stroke:none"
       d="m 537.90322,440.74722 101.64055,-19.09137 0.62362,45.04547 -101.64687,34.29404 z"
       id="path4816"
       inkscape:connector-curvature="0"
       sodipodi:nodetypes="ccccc" />
    <path
       style="fill:#2ad4ff;stroke:none"
       d="m 640.3242,421.50544 -63.56357,-30.67439 -104.53658,21.13124 66.46731,29.13033 z"
       id="path5586"
       inkscape:connector-curvature="0"
       sodipodi:nodetypes="ccccc" />
    <path
       style="fill:#d5f6ff;stroke:#2ad4ff;stroke-width:2.93168187;stroke-linecap:butt;stroke-linejoin:miter;stroke-miterlimit:4;stroke-opacity:1;stroke-dasharray:none"
       d="m 574.64213,390.13468 -28.51821,-47.71143 -90.31248,14.56496 20.50169,54.14751 z"
       id="path5588"
       inkscape:connector-curvature="0"
       sodipodi:nodetypes="ccccc" />
    <path
       style="fill:#00aad4;stroke:none"
       d="m 379.02878,332.4004 -6.21974,29.44212 -14.6136,-2.81893 4.47021,32.39079 176.66581,109.36548 -0.47603,-59.71887 -62.86522,-29.3177 -20.6984,-56.16506 z"
       id="path5592"
       inkscape:connector-curvature="0"
       sodipodi:nodetypes="ccccccccc" />
    <path
       style="fill:#2ad4ff;stroke:none"
       d="m 546.61768,340.83452 -79.72973,-17.58831 -88.33627,9.22271 75.67909,24.33088 z"
       id="path5590"
       inkscape:connector-curvature="0"
       sodipodi:nodetypes="ccccc" />
    <path
       style="fill:#55ddff;stroke:none"
       d="m 358.22887,358.9654 16.37807,-4.1969 -1.10737,7.27068 z"
       id="path5596"
       inkscape:connector-curvature="0"
       sodipodi:nodetypes="cccc" />
    <path
       style="fill:#d7f4e3;fill-opacity:1;stroke:none"
       d="m 383.63372,338.56276 -4.87247,24.80531 85.51003,43.91055 -16.85253,-48.11859 z"
       id="path5598"
       inkscape:connector-curvature="0"
       sodipodi:nodetypes="ccccc" />
    <path
       style="fill:#ffd42a;stroke:none"
       d="m 541.69417,443.19933 -0.3492,12.91478 17.95002,-4.54988 0.35403,-13.09416 z"
       id="path5602"
       inkscape:connector-curvature="0"
       sodipodi:nodetypes="ccccc" />
    <path
       style="fill:#ffd42a;stroke:none"
       d="m 627.02696,429.39621 0.0764,12.35761 11.65274,-5.70739 -0.0775,-12.52922 z"
       id="path5602-3"
       inkscape:connector-curvature="0"
       sodipodi:nodetypes="ccccc" />
    <path
       style="opacity:0.85596708;fill:#006680;stroke:none"
       d="m 375.66059,389.05924 18.60396,15.06038 -4.42951,18.60396 -18.60398,-9.74492 z"
       id="path5622"
       inkscape:connector-curvature="0" />
    <path
       style="opacity:0.85596708;fill:#006680;stroke:none"
       d="m 451.84828,434.24034 18.60396,15.06036 -4.42951,18.60396 -18.60398,-9.74492 z"
       id="path5622-8"
       inkscape:connector-curvature="0" />
    <g
       id="g22146"
       transform="matrix(1.6287122,0,0,1.6287122,-615.73921,-816.23483)">
      <path
         sodipodi:nodetypes="ccccc"
         inkscape:connector-curvature="0"
         id="path5602-6-8"
         d="m 709.25032,783.56059 1.33321,2.11147 38.89612,9.65598 -1.35168,-2.14076 z"
         style="opacity:0.9;fill:#ffd42a;stroke:none" />
      <path
         sodipodi:nodetypes="ccccc"
         inkscape:connector-curvature="0"
         id="path5602-6-1-4"
         d="m 747.67491,794.56791 2.00893,0.58306 21.56115,-26.07908 -2.03686,-0.59123 z"
         style="opacity:0.9;fill:#ffd42a;stroke:none" />
    </g>
    <path
       style="fill:none;stroke:none"
       d="m 332.72619,499.59385 c 0,0 13.47266,78.52236 146.27458,78.52236 132.80192,0 137.61357,-89.11666 137.61357,-89.11666"
       id="path21295"
       inkscape:connector-curvature="0" />
    <path
       style="fill:#ffd4af;fill-opacity:0.70776253;stroke:none"
       d="m 546.76887,446.70339 -0.26867,9.9365 13.81059,-3.50064 0.27238,-10.0745 z"
       id="path5602-0"
       inkscape:connector-curvature="0"
       sodipodi:nodetypes="ccccc" />
    <path
       style="fill:#ffd4a2;fill-opacity:0.8584475;stroke:none"
       d="m 624.95172,433.79984 0.071,9.93231 10.83255,-4.58727 -0.072,-10.07026 z"
       id="path5602-3-2"
       inkscape:connector-curvature="0"
       sodipodi:nodetypes="ccccc" />
    <path
       style="fill:none;stroke:none"
       d="m 355.97068,574.98588 c 0,0 151.0977,146.38544 309.11586,-11.63274"
       id="path22844"
       inkscape:connector-curvature="0" />
    <path
       style="opacity:0.9;fill:#ffd42a;stroke:none"
       d="m 546.89914,457.25593 1.92229,2.90505 56.08257,13.2852 -1.94894,-2.94537 z"
       id="path5602-6-8-7"
       inkscape:connector-curvature="0"
       sodipodi:nodetypes="ccccc" />
    <path
       style="opacity:0.9;fill:#ffd42a;stroke:none"
       d="m 600.41333,471.98451 3.06352,0.61853 31.34547,-31.82795 -3.10614,-0.62725 z"
       id="path5602-6-1-4-0"
       inkscape:connector-curvature="0"
       sodipodi:nodetypes="ccccc" />
    <text
       xml:space="preserve"
       style="font-size:40px;font-style:normal;font-weight:normal;line-height:125%;letter-spacing:0px;word-spacing:0px;fill:#0088aa;fill-opacity:1;stroke:none;font-family:Sans"
       id="text22136"
       sodipodi:linespacing="125%"
       transform="matrix(1.5228512,-0.57760527,0.57760527,1.5228512,-1066.7918,-294.80735)"><textPath
         xlink:href="#path22126"
         id="textPath22142"><tspan
   id="tspan22138"
   style="fill:#0088aa"><tspan
     id="tspan22140"
     style="fill:#0088aa"
     y="989.97217"
     x="541.75">TUT-TUT</tspan></tspan></textPath></text>
  </g>
</svg>
